<svg xmlns="http://www.w3.org/2000/svg"  viewBox="0 0 48 48" width="96px" height="96px"><path fill="#90caf9" d="M28,11.062c-9.906,0-17.938,7.597-17.938,16.968c0,5.046,2.342,9.563,6.037,12.671l-0.08,4.006	c-0.033,1.663,1.766,2.723,3.204,1.887l3.879-2.252c1.559,0.418,3.198,0.656,4.898,0.656c9.906,0,17.937-7.597,17.937-16.968	S37.906,11.062,28,11.062z"/><path fill="none" stroke="#18193f" stroke-linecap="round" stroke-linejoin="round" stroke-width="3" d="M9.725,12.868	C7.085,15.893,5.5,19.772,5.5,24c0,5.204,2.415,9.863,6.226,13.068L11.643,41.2c-0.034,1.715,1.821,2.808,3.304,1.946l4.001-2.323"/><path fill="none" stroke="#18193f" stroke-linecap="round" stroke-linejoin="round" stroke-width="3" d="M27.728,41.144	C36.158,39.513,42.5,32.457,42.5,24c0-9.665-8.283-17.5-18.5-17.5c-3.232,0-6.27,0.784-8.914,2.162"/><path fill="#18193f" d="M34.724,18.525c-0.318-0.458-0.947-0.573-1.406-0.255l-6.615,4.582l-3.453-3.038l-0.242-0.213	l-0.133-0.108c-1.034-0.78-2.505-0.574-3.285,0.46l-6.272,8.316l-0.019,0.024c-0.255,0.339-0.277,0.816-0.023,1.183	c0.318,0.458,0.947,0.573,1.406,0.255l6.615-4.582l3.453,3.038l0.242,0.213l0.133,0.108c1.034,0.78,2.505,0.574,3.285-0.46	l6.272-8.316l0.019-0.024C34.956,19.369,34.978,18.892,34.724,18.525z"/></svg>